<?xml version="1.0" encoding="UTF-8"?>
<svg xmlns="http://www.w3.org/2000/svg" xmlns:xlink="http://www.w3.org/1999/xlink" width="957px" height="350px" viewBox="0 0 958 350" version="1.1">
<g id="surface1">
<path style=" stroke:none;fill-rule:nonzero;fill:rgb(99.607843%,99.607843%,99.607843%);fill-opacity:1;" d="M 395.179688 48.574219 C 413.828125 65.925781 421.488281 89.960938 422.96875 114.871094 C 423.09375 119.582031 423.101562 124.292969 423.101562 129.003906 C 423.101562 130.394531 423.105469 131.78125 423.113281 133.167969 C 423.117188 136.914062 423.117188 140.65625 423.117188 144.398438 C 423.125 146.746094 423.125 149.09375 423.125 151.4375 C 423.136719 159.660156 423.136719 167.878906 423.136719 176.09375 C 423.136719 183.710938 423.144531 191.328125 423.15625 198.941406 C 423.167969 205.515625 423.175781 212.089844 423.175781 218.664062 C 423.175781 222.574219 423.175781 226.484375 423.1875 230.394531 C 423.300781 278.691406 423.300781 278.691406 413.109375 300.640625 C 412.835938 301.269531 412.5625 301.902344 412.277344 302.554688 C 402.878906 323.066406 384.453125 336.25 363.972656 343.996094 C 362.429688 344.519531 360.875 345.027344 359.316406 345.511719 C 358.542969 345.761719 357.769531 346.007812 356.964844 346.257812 C 346.058594 349.480469 335.007812 350.332031 323.683594 350.277344 C 322.511719 350.273438 321.332031 350.273438 320.125 350.269531 C 311.136719 350.160156 302.597656 349.503906 293.878906 347.304688 C 293.273438 347.15625 292.675781 347.007812 292.054688 346.855469 C 278.5 343.359375 266.257812 337.222656 255.328125 328.460938 C 254.765625 328.035156 254.199219 327.601562 253.613281 327.164062 C 236.789062 313.769531 227.492188 290.964844 224.976562 270.097656 C 223.484375 256.003906 223.6875 241.855469 223.710938 227.703125 C 223.714844 223.832031 223.710938 219.964844 223.710938 216.09375 C 223.707031 209.601562 223.710938 203.105469 223.714844 196.613281 C 223.726562 189.15625 223.722656 181.699219 223.714844 174.242188 C 223.707031 167.789062 223.707031 161.332031 223.710938 154.875 C 223.710938 151.046875 223.710938 147.210938 223.707031 143.378906 C 223.660156 107.476562 225.722656 75.71875 251.742188 48.460938 C 288.792969 12.625 357.472656 16.496094 395.179688 48.574219 Z M 295.765625 91.453125 C 286.566406 100.636719 283.570312 112.707031 283.527344 125.367188 C 283.535156 126.664062 283.546875 127.96875 283.550781 129.273438 C 283.546875 130.679688 283.539062 132.085938 283.535156 133.496094 C 283.519531 137.277344 283.523438 141.058594 283.535156 144.847656 C 283.546875 148.828125 283.535156 152.8125 283.527344 156.792969 C 283.523438 163.476562 283.527344 170.15625 283.546875 176.839844 C 283.570312 184.542969 283.5625 192.242188 283.539062 199.945312 C 283.523438 206.582031 283.523438 213.222656 283.535156 219.867188 C 283.539062 223.820312 283.539062 227.769531 283.527344 231.722656 C 283.519531 235.441406 283.523438 239.160156 283.546875 242.878906 C 283.550781 244.238281 283.546875 245.59375 283.539062 246.949219 C 283.472656 259.46875 285.632812 271.046875 293.878906 280.898438 C 303.253906 289.695312 313.300781 292.226562 325.820312 292.089844 C 336.722656 291.699219 346.15625 288.128906 353.769531 280.078125 C 362.097656 269.613281 363.175781 258.273438 363.167969 245.371094 C 363.175781 243.953125 363.179688 242.539062 363.1875 241.121094 C 363.203125 237.292969 363.203125 233.457031 363.207031 229.628906 C 363.207031 227.230469 363.207031 224.832031 363.214844 222.4375 C 363.230469 214.054688 363.238281 205.675781 363.238281 197.296875 C 363.238281 189.503906 363.253906 181.714844 363.28125 173.921875 C 363.304688 167.21875 363.316406 160.511719 363.316406 153.808594 C 363.316406 149.808594 363.324219 145.816406 363.339844 141.816406 C 363.355469 138.058594 363.355469 134.292969 363.34375 130.53125 C 363.34375 129.160156 363.34375 127.785156 363.355469 126.40625 C 363.449219 113.9375 361.203125 103.050781 352.652344 93.613281 C 351.515625 92.585938 351.515625 92.585938 350.351562 91.539062 C 349.5625 90.78125 348.765625 90.019531 347.945312 89.238281 C 333.378906 77.53125 309.605469 79.917969 295.765625 91.453125 Z M 295.765625 91.453125 "/>
<path style=" stroke:none;fill-rule:nonzero;fill:rgb(99.607843%,99.607843%,99.607843%);fill-opacity:1;" d="M 156.5 42.1875 C 176.789062 60.195312 185.589844 83.320312 190.109375 109.652344 C 190.328125 110.929688 190.328125 110.929688 190.554688 112.234375 C 191.710938 119.445312 192.082031 126.34375 192.578125 133.714844 C 172.753906 133.714844 152.933594 133.714844 132.507812 133.714844 C 131.625 127.792969 130.738281 121.875 129.820312 115.765625 C 126.601562 104.214844 122.734375 93.320312 111.890625 87.050781 C 102.78125 82.277344 92.894531 82.476562 83.148438 85.152344 C 74.34375 88.496094 68.5625 94.6875 64.589844 103.0625 C 60.761719 112.84375 60.398438 123.566406 60.445312 133.933594 C 60.4375 135.230469 60.4375 136.523438 60.433594 137.824219 C 60.417969 141.292969 60.421875 144.769531 60.433594 148.242188 C 60.4375 151.90625 60.433594 155.570312 60.425781 159.230469 C 60.421875 165.382812 60.425781 171.53125 60.445312 177.683594 C 60.457031 184.753906 60.449219 191.820312 60.4375 198.898438 C 60.425781 205.007812 60.421875 211.121094 60.433594 217.234375 C 60.433594 220.863281 60.433594 224.496094 60.425781 228.132812 C 60.417969 231.550781 60.421875 234.96875 60.4375 238.386719 C 60.445312 240.210938 60.4375 242.039062 60.425781 243.859375 C 60.511719 256.648438 61.78125 271.015625 70.554688 281.035156 C 78.78125 288.6875 88.503906 291.257812 99.582031 290.988281 C 108.539062 290.179688 114.890625 286.292969 121.027344 279.886719 C 129.6875 269.136719 130.78125 253.492188 132.507812 240.511719 C 152.332031 240.511719 172.152344 240.511719 192.578125 240.511719 C 190.46875 263.726562 190.46875 263.726562 188.824219 271.585938 C 188.628906 272.515625 188.4375 273.441406 188.242188 274.398438 C 184.484375 291.761719 178.246094 308.550781 166.574219 322.179688 C 165.898438 323.039062 165.214844 323.898438 164.515625 324.785156 C 151.214844 340.726562 130.070312 347.742188 110.101562 350 C 81.679688 351.792969 52.316406 348.085938 30.023438 328.820312 C 11.835938 312.429688 3.746094 290.367188 0.730469 266.539062 C 0.648438 264.3125 0.609375 262.085938 0.605469 259.855469 C 0.597656 259.214844 0.597656 258.570312 0.59375 257.910156 C 0.585938 255.765625 0.585938 253.625 0.585938 251.488281 C 0.582031 249.945312 0.574219 248.402344 0.570312 246.863281 C 0.558594 242.6875 0.550781 238.503906 0.546875 234.332031 C 0.546875 231.710938 0.542969 229.09375 0.542969 226.480469 C 0.53125 218.269531 0.519531 210.066406 0.511719 201.867188 C 0.511719 192.425781 0.496094 182.992188 0.46875 173.554688 C 0.449219 166.238281 0.4375 158.925781 0.4375 151.609375 C 0.4375 147.246094 0.433594 142.886719 0.414062 138.53125 C 0.40625 134.421875 0.398438 130.316406 0.410156 126.203125 C 0.410156 124.710938 0.40625 123.210938 0.398438 121.71875 C 0.261719 97.652344 6.269531 73.917969 21.347656 54.746094 C 21.832031 54.125 22.316406 53.496094 22.816406 52.859375 C 37.621094 34.921875 60.507812 27.085938 82.898438 24.410156 C 108.328125 22.25 136.148438 25.359375 156.5 42.1875 Z M 156.5 42.1875 "/>
<path style=" stroke:none;fill-rule:nonzero;fill:rgb(99.607843%,99.607843%,99.607843%);fill-opacity:1;" d="M 602.265625 116.667969 C 622.085938 116.667969 641.90625 116.667969 662.328125 116.667969 C 662.371094 135.113281 662.402344 153.550781 662.425781 171.992188 C 662.429688 180.558594 662.445312 189.128906 662.464844 197.691406 C 662.480469 205.164062 662.492188 212.632812 662.5 220.105469 C 662.5 224.054688 662.503906 228.007812 662.519531 231.953125 C 662.53125 235.6875 662.53125 239.417969 662.53125 243.148438 C 662.53125 244.511719 662.539062 245.867188 662.542969 247.222656 C 662.605469 259.652344 662.171875 272.613281 658.628906 284.597656 C 658.441406 285.253906 658.253906 285.90625 658.0625 286.585938 C 651.753906 307.265625 638.296875 324.449219 619.300781 334.746094 C 575.859375 357.878906 509.3125 347.304688 468.691406 347.304688 C 468.691406 271.496094 468.691406 195.679688 468.691406 117.566406 C 487.917969 117.566406 507.148438 117.566406 526.960938 117.566406 C 526.960938 174.722656 526.960938 231.878906 526.960938 290.765625 C 561.863281 292.816406 561.863281 292.816406 592.5 279.207031 C 601.132812 269.535156 601.636719 258.539062 601.65625 246.257812 C 601.660156 244.847656 601.671875 243.429688 601.683594 242.015625 C 601.707031 238.1875 601.71875 234.359375 601.734375 230.535156 C 601.746094 226.527344 601.769531 222.519531 601.792969 218.515625 C 601.835938 210.941406 601.867188 203.363281 601.898438 195.785156 C 601.933594 187.15625 601.972656 178.527344 602.019531 169.902344 C 602.117188 152.15625 602.191406 134.410156 602.265625 116.667969 Z M 602.265625 116.667969 "/>
<path style=" stroke:none;fill-rule:nonzero;fill:rgb(99.607843%,99.607843%,99.607843%);fill-opacity:1;" d="M 708.046875 117.566406 C 727.277344 117.566406 746.507812 117.566406 766.324219 117.566406 C 766.324219 131.484375 766.324219 145.398438 766.324219 159.746094 C 800.046875 159.746094 833.773438 159.746094 868.519531 159.746094 C 868.519531 178.402344 868.519531 197.058594 868.519531 216.285156 C 834.792969 216.285156 801.066406 216.285156 766.324219 216.285156 C 766.324219 240.863281 766.324219 265.445312 766.324219 290.765625 C 805.964844 290.765625 845.601562 290.765625 886.449219 290.765625 C 886.449219 309.429688 886.449219 328.085938 886.449219 347.304688 C 827.574219 347.304688 768.703125 347.304688 708.046875 347.304688 C 708.046875 271.496094 708.046875 195.679688 708.046875 117.566406 Z M 708.046875 117.566406 "/>
<path style=" stroke:none;fill-rule:nonzero;fill:rgb(99.607843%,99.607843%,99.607843%);fill-opacity:1;" d="M 474.066406 31.410156 C 519.617188 31.410156 519.617188 31.410156 526.601562 38.042969 C 531.128906 43.25 531.789062 49.179688 531.679688 55.804688 C 531.316406 59.671875 530.347656 62.507812 527.859375 65.511719 C 525.300781 67.566406 522.640625 69.289062 519.789062 70.898438 C 520.253906 71.082031 520.722656 71.269531 521.199219 71.464844 C 526.085938 73.625 528.894531 76.050781 531.441406 80.765625 C 533.480469 86.890625 533.316406 94.582031 530.882812 100.566406 C 527.832031 106.351562 523.222656 109.128906 517.101562 111.285156 C 502.898438 113.3125 488.414062 112.179688 474.066406 112.179688 C 474.066406 85.523438 474.066406 58.875 474.066406 31.410156 Z M 489.308594 46.667969 C 489.308594 52 489.308594 57.332031 489.308594 62.824219 C 492.652344 62.890625 495.996094 62.949219 499.339844 62.988281 C 500.757812 63.023438 500.757812 63.023438 502.203125 63.054688 C 503.121094 63.066406 504.039062 63.074219 504.980469 63.085938 C 505.820312 63.097656 506.660156 63.113281 507.523438 63.125 C 510.40625 62.757812 512.074219 61.824219 514.410156 60.128906 C 515.839844 57.261719 515.765625 54.265625 515.304688 51.15625 C 513.632812 48.972656 512.367188 47.886719 509.929688 46.667969 C 508.367188 46.59375 506.808594 46.570312 505.242188 46.582031 C 503.855469 46.582031 503.855469 46.582031 502.445312 46.585938 C 501.476562 46.59375 500.5 46.605469 499.503906 46.609375 C 498.53125 46.617188 497.558594 46.621094 496.550781 46.621094 C 494.140625 46.632812 491.722656 46.648438 489.308594 46.667969 Z M 489.308594 78.078125 C 489.308594 84.296875 489.308594 90.511719 489.308594 96.921875 C 492.480469 96.996094 495.660156 97.046875 498.832031 97.09375 C 499.734375 97.117188 500.628906 97.136719 501.550781 97.160156 C 506.5 97.207031 510.191406 97.148438 514.410156 94.234375 C 516.398438 91.34375 517.101562 89.601562 517.101562 86.097656 C 515.964844 82.773438 514.398438 81.210938 511.722656 78.972656 C 509.035156 78.078125 507.261719 77.976562 504.453125 77.988281 C 503.132812 77.992188 503.132812 77.992188 501.785156 78 C 500.40625 78.007812 500.40625 78.007812 499.003906 78.019531 C 498.074219 78.027344 497.148438 78.027344 496.191406 78.03125 C 493.894531 78.042969 491.605469 78.0625 489.308594 78.078125 Z M 489.308594 78.078125 "/>
<path style=" stroke:none;fill-rule:nonzero;fill:rgb(99.607843%,99.607843%,99.607843%);fill-opacity:1;" d="M 725.980469 31.410156 C 732.488281 31.410156 738.992188 31.410156 745.703125 31.410156 C 746.996094 34.128906 748.289062 36.851562 749.621094 39.652344 C 756.890625 54.898438 764.3125 70.074219 771.699219 85.253906 C 771.996094 67.488281 772.292969 49.71875 772.59375 31.410156 C 777.625 31.410156 782.652344 31.410156 787.835938 31.410156 C 787.835938 58.066406 787.835938 84.71875 787.835938 112.179688 C 781.621094 112.179688 775.414062 112.179688 769.011719 112.179688 C 763.191406 101.261719 757.566406 90.261719 752.03125 79.199219 C 751.695312 78.527344 751.359375 77.855469 751.011719 77.160156 C 750.03125 75.207031 749.058594 73.257812 748.085938 71.304688 C 747.792969 70.722656 747.503906 70.140625 747.207031 69.542969 C 746.929688 68.984375 746.65625 68.433594 746.371094 67.859375 C 746.128906 67.378906 745.890625 66.90625 745.648438 66.417969 C 744.398438 63.75 743.269531 61.035156 742.113281 58.332031 C 741.820312 76.101562 741.523438 93.875 741.222656 112.179688 C 736.191406 112.179688 731.160156 112.179688 725.980469 112.179688 C 725.980469 85.523438 725.980469 58.875 725.980469 31.410156 Z M 725.980469 31.410156 "/>
<path style=" stroke:none;fill-rule:nonzero;fill:rgb(99.607843%,99.607843%,99.607843%);fill-opacity:1;" d="M 558.335938 31.410156 C 601.855469 31.410156 601.855469 31.410156 608.761719 36.066406 C 614.714844 42.15625 615.96875 49.003906 616.003906 57.257812 C 615.882812 64.410156 613.667969 70.25 608.542969 75.382812 C 606.496094 76.726562 604.441406 77.84375 602.265625 78.972656 C 603.421875 82.777344 604.867188 86.019531 606.882812 89.4375 C 607.429688 90.371094 607.984375 91.304688 608.546875 92.269531 C 609.117188 93.230469 609.691406 94.195312 610.277344 95.183594 C 610.847656 96.148438 611.410156 97.117188 612 98.105469 C 615.023438 103.25 615.023438 103.25 618.140625 108.339844 C 619.300781 110.382812 619.300781 110.382812 619.300781 112.179688 C 613.085938 112.179688 606.871094 112.179688 600.46875 112.179688 C 599.320312 110.15625 598.164062 108.140625 597.011719 106.117188 C 596.027344 104.390625 595.042969 102.671875 594.050781 100.957031 C 591.839844 97.117188 589.652344 93.289062 587.6875 89.316406 C 587.390625 88.734375 587.097656 88.15625 586.789062 87.558594 C 586.015625 86.03125 585.269531 84.488281 584.523438 82.941406 C 582.117188 79.820312 582.117188 79.820312 574.472656 79.871094 C 574.472656 90.53125 574.472656 101.195312 574.472656 112.179688 C 569.148438 112.179688 563.824219 112.179688 558.335938 112.179688 C 558.335938 85.523438 558.335938 58.875 558.335938 31.410156 Z M 574.472656 46.667969 C 574.472656 52.589844 574.472656 58.515625 574.472656 64.617188 C 577.835938 64.714844 581.195312 64.78125 584.5625 64.839844 C 585.992188 64.882812 585.992188 64.882812 587.449219 64.929688 C 588.828125 64.945312 588.828125 64.945312 590.234375 64.964844 C 591.078125 64.988281 591.921875 65.003906 592.792969 65.019531 C 595.769531 64.496094 596.789062 63.328125 598.683594 61.027344 C 599.703125 58.988281 599.816406 57.632812 599.910156 55.359375 C 599.957031 54.683594 600.003906 54 600.042969 53.296875 C 599.28125 49.804688 598.027344 48.699219 595.09375 46.667969 C 591.542969 46.121094 588.082031 46.246094 584.503906 46.386719 C 583.542969 46.40625 582.578125 46.425781 581.582031 46.449219 C 579.214844 46.5 576.84375 46.582031 574.472656 46.667969 Z M 574.472656 46.667969 "/>
<path style=" stroke:none;fill-rule:nonzero;fill:rgb(99.607843%,99.607843%,99.607843%);fill-opacity:1;" d="M 816.527344 31.410156 C 859.269531 31.410156 859.269531 31.410156 868.960938 40.78125 C 874.445312 46.742188 875.210938 53.398438 875.183594 61.109375 C 875.1875 61.949219 875.195312 62.800781 875.199219 63.671875 C 875.203125 65.453125 875.203125 67.238281 875.195312 69.019531 C 875.1875 71.726562 875.210938 74.433594 875.238281 77.144531 C 875.246094 78.882812 875.246094 80.625 875.238281 82.363281 C 875.25 83.164062 875.261719 83.960938 875.265625 84.789062 C 875.1875 92.394531 872.652344 98.875 867.457031 104.492188 C 853.949219 116.152344 832.082031 112.179688 816.527344 112.179688 C 816.527344 85.523438 816.527344 58.875 816.527344 31.410156 Z M 832.664062 46.667969 C 832.664062 63.25 832.664062 79.839844 832.664062 96.921875 C 845.746094 97.703125 845.746094 97.703125 856.363281 92.433594 C 860.179688 87.546875 858.964844 79.859375 859.023438 73.902344 C 859.039062 72.351562 859.074219 70.804688 859.113281 69.253906 C 859.171875 67.015625 859.199219 64.769531 859.214844 62.527344 C 859.238281 61.84375 859.269531 61.152344 859.289062 60.445312 C 859.273438 55.757812 858.042969 53.246094 854.960938 49.738281 C 848.398438 44.765625 840.546875 46.667969 832.664062 46.667969 Z M 832.664062 46.667969 "/>
<path style=" stroke:none;fill-rule:nonzero;fill:rgb(99.607843%,99.607843%,99.607843%);fill-opacity:1;" d="M 664.121094 31.410156 C 667.378906 31.410156 670.632812 31.410156 673.988281 31.410156 C 677.730469 39.296875 680.816406 47.34375 683.835938 55.523438 C 685.296875 59.488281 686.769531 63.441406 688.242188 67.398438 C 688.695312 68.609375 688.695312 68.609375 689.15625 69.847656 C 691.25 75.457031 693.398438 81.046875 695.585938 86.621094 C 695.875 87.367188 696.167969 88.117188 696.46875 88.882812 C 697.871094 92.457031 699.269531 96.023438 700.683594 99.582031 C 701.183594 100.863281 701.691406 102.140625 702.191406 103.417969 C 702.421875 103.996094 702.652344 104.578125 702.894531 105.171875 C 703.871094 107.664062 704.464844 109.472656 704.464844 112.179688 C 698.84375 112.179688 693.222656 112.179688 687.429688 112.179688 C 685.953125 108.03125 684.472656 103.890625 682.945312 99.617188 C 673.777344 99.617188 664.605469 99.617188 655.15625 99.617188 C 653.679688 103.765625 652.199219 107.90625 650.671875 112.179688 C 645.058594 112.179688 639.4375 112.179688 633.644531 112.179688 C 634.453125 108.117188 635.636719 104.480469 637.09375 100.628906 C 637.355469 99.9375 637.617188 99.242188 637.886719 98.523438 C 638.746094 96.234375 639.613281 93.941406 640.476562 91.652344 C 641.082031 90.058594 641.679688 88.457031 642.277344 86.863281 C 644.175781 81.835938 646.078125 76.820312 647.984375 71.792969 C 648.304688 70.960938 648.617188 70.132812 648.941406 69.269531 C 650.792969 64.40625 652.644531 59.546875 654.5 54.6875 C 655.085938 53.160156 655.667969 51.640625 656.25 50.113281 C 657.0625 47.976562 657.882812 45.847656 658.699219 43.714844 C 658.9375 43.089844 659.175781 42.46875 659.421875 41.824219 C 660.804688 38.242188 662.355469 34.816406 664.121094 31.410156 Z M 668.605469 58.332031 C 667.253906 62.160156 665.910156 65.996094 664.570312 69.828125 C 663.996094 71.46875 663.996094 71.46875 663.402344 73.132812 C 663.039062 74.179688 662.675781 75.222656 662.304688 76.300781 C 661.960938 77.261719 661.625 78.226562 661.277344 79.21875 C 660.40625 81.671875 660.40625 81.671875 660.539062 84.359375 C 666.15625 84.359375 671.777344 84.359375 677.570312 84.359375 C 676.15625 77.828125 676.15625 77.828125 674.230469 71.566406 C 673.953125 70.78125 673.671875 70 673.390625 69.191406 C 673.105469 68.40625 672.820312 67.613281 672.527344 66.804688 C 672.238281 65.984375 671.941406 65.164062 671.644531 64.320312 C 670.933594 62.320312 670.222656 60.328125 669.503906 58.332031 C 669.207031 58.332031 668.910156 58.332031 668.605469 58.332031 Z M 668.605469 58.332031 "/>
</g>
</svg>
